<svg width="172" height="31" viewBox="0 0 172 31" fill="none" xmlns="http://www.w3.org/2000/svg">
<g clip-path="url(#clip0_1794_17764)">
<path d="M94.403 19.7588C93.8119 19.4516 93.3411 19.0008 92.9905 18.3997C92.6399 17.7987 92.4629 17.0707 92.4629 16.2125C92.4629 15.3544 92.6399 14.6331 92.9938 14.0287C93.3478 13.4243 93.8219 12.9702 94.4096 12.663C94.9973 12.3558 95.6485 12.2021 96.3564 12.2021C96.9775 12.2021 97.5418 12.3157 98.0527 12.5427C98.5636 12.7698 98.981 13.0904 99.3083 13.5044C99.6322 13.9185 99.8292 14.396 99.896 14.9303H98.3399C98.2865 14.4962 98.0761 14.1456 97.7021 13.8784C97.3281 13.6113 96.8773 13.4744 96.3464 13.4744C95.8822 13.4744 95.4749 13.5779 95.1142 13.7883C94.7569 13.9986 94.4731 14.3092 94.2694 14.7232C94.0624 15.1373 93.9622 15.6315 93.9622 16.2059C93.9622 16.7802 94.0657 17.2744 94.2694 17.6851C94.4731 18.0958 94.7569 18.4064 95.1142 18.6134C95.4715 18.8238 95.8822 18.9273 96.3464 18.9273C96.884 18.9273 97.3415 18.7937 97.7188 18.5233C98.0961 18.2561 98.3165 17.9088 98.3866 17.4814H99.8659C99.8125 18.019 99.6322 18.4932 99.3183 18.9106C99.0044 19.3247 98.5937 19.6452 98.0828 19.8723C97.5719 20.0994 96.9975 20.2129 96.3631 20.2129C95.6452 20.2129 94.994 20.0593 94.403 19.7554V19.7588Z" fill="#242526"/>
<path d="M103.481 19.6953C102.88 19.348 102.409 18.8705 102.065 18.2628C101.721 17.6551 101.551 16.9705 101.551 16.2092C101.551 15.4479 101.721 14.7633 102.065 14.1556C102.409 13.5478 102.88 13.0703 103.481 12.7231C104.082 12.3758 104.76 12.2021 105.514 12.2021C106.269 12.2021 106.934 12.3758 107.535 12.7231C108.136 13.0703 108.607 13.5478 108.95 14.1556C109.294 14.7633 109.465 15.4479 109.465 16.2092C109.465 16.9705 109.294 17.6551 108.95 18.2628C108.607 18.8705 108.136 19.348 107.535 19.6953C106.934 20.0426 106.259 20.2162 105.514 20.2162C104.77 20.2162 104.082 20.0426 103.481 19.6953ZM103.357 17.6016C103.571 18.0157 103.861 18.3396 104.236 18.5767C104.609 18.8138 105.03 18.9306 105.501 18.9306C105.972 18.9306 106.396 18.8138 106.773 18.5767C107.151 18.3429 107.444 18.0157 107.658 17.6016C107.872 17.1876 107.979 16.7234 107.979 16.2092C107.979 15.695 107.872 15.2275 107.658 14.8101C107.444 14.3927 107.151 14.0654 106.773 13.8317C106.396 13.5979 105.972 13.4777 105.501 13.4777C105.03 13.4777 104.609 13.5946 104.236 13.8317C103.861 14.0688 103.568 14.3927 103.357 14.8101C103.144 15.2275 103.037 15.695 103.037 16.2092C103.037 16.7234 103.144 17.1876 103.357 17.6016Z" fill="#242526"/>
<path d="M111.59 12.2891H113.293L115.667 18.076L118.041 12.2891H119.744V20.1263H118.355V14.9305L116.228 20.1263H115.109L112.972 14.9305V20.1263H111.597V12.2891H111.59Z" fill="#242526"/>
<path d="M122.264 12.2891H123.967L126.341 18.076L128.715 12.2891H130.418V20.1263H129.029V14.9305L126.902 20.1263H125.783L123.646 14.9305V20.1263H122.27V12.2891H122.264Z" fill="#242526"/>
<path d="M133.7 19.4551C133.142 18.9475 132.865 18.2262 132.865 17.2946V12.2891H134.254V17.3046C134.254 17.8255 134.408 18.2262 134.715 18.5034C135.022 18.7806 135.433 18.9175 135.947 18.9175C136.462 18.9175 136.872 18.7806 137.179 18.5034C137.487 18.2262 137.64 17.8289 137.64 17.3046V12.2891H139.016V17.2946C139.016 18.2296 138.739 18.9475 138.181 19.4551C137.624 19.9626 136.879 20.2164 135.947 20.2164C135.016 20.2164 134.258 19.9626 133.703 19.4551H133.7Z" fill="#242526"/>
<path d="M141.477 12.2891H143.066L146.469 17.8189V12.2891H147.935V20.1263H146.345L142.942 14.6065V20.1263H141.477V12.2891Z" fill="#242526"/>
<path d="M150.465 12.2891H151.944V20.1263H150.465V12.2891Z" fill="#242526"/>
<path d="M156.132 13.5647H153.758V12.2891H159.972V13.5647H157.608V20.1263H156.129V13.5647H156.132Z" fill="#242526"/>
<path d="M163.823 16.8701L161.125 12.292H162.728L164.564 15.4943L166.411 12.292H168L165.302 16.8701V20.1292H163.823V16.8701Z" fill="#242526"/>
<path d="M11.4077 16.354C13.372 16.9646 13.869 17.6628 13.869 19.788V22.273H17.7101V18.4343C17.7101 16.38 16.7847 15.2038 14.7731 14.7305L12.2668 14.1199C16.2428 13.9613 18.2308 12.3804 18.2308 9.37707V9.24217C18.2308 6.07793 15.9943 4 11.5213 4H4V22.273H7.8411V15.2488L11.41 16.3564L11.4077 16.354ZM11.4313 6.79977C13.3957 6.79977 14.3447 7.7701 14.3447 9.46463V9.59953C14.3447 11.2941 13.3957 12.2644 11.4313 12.2644H7.8411V6.79977H11.4313ZM61.0769 6.28147V6.19153C61.0769 5.08393 60.2864 4.2272 58.999 4.2272C57.7115 4.2272 56.921 5.0863 56.921 6.19153V6.28147C56.921 7.38907 57.7115 8.2458 58.999 8.2458C60.2864 8.2458 61.0769 7.3867 61.0769 6.28147ZM46.6899 11.6112H48.543V18.0036C48.543 21.1654 49.5134 22.273 52.7675 22.273H55.8395V19.788H53.4894C52.4954 19.788 52.1569 19.4496 52.1569 18.5455V11.6112H55.7259V9.1262H52.1569V5.06027H48.543V9.1262H46.6899V11.6112ZM18.5242 15.7671C18.5242 19.5608 20.8057 22.4529 24.0812 22.4529C26.0905 22.4529 27.5815 21.4376 28.3506 19.7431V22.273H31.9645V9.1262H28.3506V11.6562C27.5838 9.96163 26.0928 8.94633 24.0812 8.94633C20.8057 8.94633 18.5242 11.8384 18.5242 15.6322V15.7671ZM47.0284 15.7671V15.6322C47.0284 11.8384 44.7469 8.94633 41.4714 8.94633C39.4621 8.94633 37.9711 9.96163 37.202 11.6562V9.1262H33.5881V26.5638H37.202V19.7431C37.9711 21.4376 39.4598 22.4529 41.4714 22.4529C44.7469 22.4529 47.0284 19.5608 47.0284 15.7671ZM85.9884 18.1385H82.7366C82.2846 19.2461 81.3379 19.9229 80.2516 19.9229C78.5358 19.9229 77.4282 18.7704 77.2247 16.4439H85.9861V15.902C85.9861 11.5875 83.5484 8.94633 79.731 8.94633C76.1384 8.94633 73.5421 11.8147 73.5421 15.6322V15.7671C73.5421 19.7644 76.207 22.4529 80.0694 22.4529C83.0277 22.4529 85.2642 20.9169 85.9861 18.1385M74.245 9.1262H71.0832L68.1911 18.6591L65.299 9.1262H61.4366L65.9546 22.2707H69.7271L74.245 9.1262ZM60.8071 9.1262H57.1932V22.2707H60.8071V9.1262ZM79.9818 11.4763C81.3829 11.4763 82.3745 12.4703 82.623 14.2761H77.3832C77.7004 12.423 78.647 11.4763 79.9795 11.4763M22.1831 15.7671V15.6322C22.1831 13.1921 23.4469 11.7011 25.3237 11.7011C27.2004 11.7011 28.4642 13.1921 28.4642 15.6322V15.7671C28.4642 18.2071 27.2004 19.6981 25.3237 19.6981C23.4469 19.6981 22.1831 18.2071 22.1831 15.7671ZM43.3695 15.7671C43.3695 18.2071 42.1057 19.6981 40.2289 19.6981C38.3522 19.6981 37.0907 18.2071 37.0907 15.7671V15.6322C37.0907 13.1921 38.3545 11.7011 40.2289 11.7011C42.1033 11.7011 43.3695 13.1921 43.3695 15.6322V15.7671Z" fill="#242526"/>
</g>
<defs>
<clipPath id="clip0_1794_17764">
<rect width="164" height="23" fill="white" transform="translate(4 4)"/>
</clipPath>
</defs>
</svg>
